<?xml version="1.0" standalone="no"?>
<!DOCTYPE svg PUBLIC "-//W3C//DTD SVG 20010904//EN"
 "http://www.w3.org/TR/2001/REC-SVG-20010904/DTD/svg10.dtd">
<svg version="1.0" xmlns="http://www.w3.org/2000/svg"
 width="299.000000pt" height="300.000000pt" viewBox="0 0 299.000000 300.000000"
 preserveAspectRatio="xMidYMid meet">

<g transform="translate(0.000000,300.000000) scale(0.100000,-0.100000)"
fill="#000000" stroke="none">
<path d="M1358 2880 c-604 -70 -1081 -507 -1209 -1110 -29 -138 -32 -390 -6
-523 99 -497 455 -905 924 -1057 l82 -27 372 3 c419 4 411 3 594 90 397 189
682 563 762 998 23 123 23 369 0 492 -103 560 -535 999 -1093 1113 -116 24
-316 34 -426 21z m136 -302 c14 -20 15 -20 35 13 12 19 21 42 21 52 0 14 3 15
19 5 11 -7 25 -23 31 -36 9 -21 7 -31 -15 -63 -28 -44 -36 -48 -28 -19 6 21
-12 28 -20 8 -5 -16 41 -78 58 -78 6 0 40 -14 74 -31 46 -23 66 -28 74 -20 8
8 8 14 -1 23 -13 13 -15 49 -6 86 l7 23 23 -22 c31 -29 30 -64 -1 -101 -21
-25 -23 -32 -12 -49 8 -14 18 -18 32 -13 11 3 54 8 95 11 81 5 100 14 81 36
-6 8 -11 37 -10 65 l2 51 29 -20 c34 -24 37 -62 8 -99 -11 -14 -20 -28 -20
-31 0 -3 18 -11 39 -17 22 -7 57 -30 80 -54 39 -41 53 -39 31 2 -6 11 -7 37
-4 59 6 39 7 40 29 25 35 -23 37 -52 7 -105 -14 -26 -24 -50 -21 -53 3 -3 19
-8 35 -12 25 -5 32 -2 42 20 6 14 29 34 52 45 l40 19 0 -22 c0 -36 -28 -66
-61 -66 -36 0 -38 -16 -3 -24 18 -5 30 -1 42 13 15 17 91 46 99 37 2 -2 -1
-15 -7 -30 -11 -31 -44 -46 -86 -39 -28 5 -27 4 11 -20 35 -22 42 -24 56 -11
17 16 109 20 109 4 0 -5 -10 -19 -22 -30 -23 -21 -46 -22 -92 -4 -18 7 -18 5
3 -25 17 -23 28 -30 40 -25 9 5 41 8 72 9 51 0 55 -2 45 -17 -19 -32 -61 -42
-97 -24 -18 9 -33 16 -35 16 -1 0 0 -17 3 -37 7 -43 19 -55 48 -47 14 4 16 3
7 -4 -10 -7 -8 -12 11 -25 34 -22 107 -94 101 -99 -2 -3 2 -20 10 -38 13 -33
15 -34 66 -31 43 2 56 -2 76 -20 13 -12 24 -33 24 -45 l0 -23 -42 19 c-23 10
-49 29 -59 41 -27 36 -47 19 -51 -43 l-4 -53 -8 53 c-12 72 -72 163 -133 203
l-48 30 -12 -28 -11 -28 49 -3 c36 -2 52 -8 64 -25 14 -20 21 -57 11 -57 -19
0 -94 41 -99 54 -9 24 -30 19 -62 -14 l-29 -30 45 0 c53 0 89 -22 89 -55 0
-24 0 -24 -45 -9 -26 9 -47 23 -50 35 -9 26 -34 24 -75 -6 -29 -22 -31 -25
-12 -25 11 0 60 -14 107 -31 76 -28 88 -30 103 -17 9 9 27 18 39 20 18 5 20 3
14 -15 -5 -12 -18 -24 -31 -27 -20 -5 -18 -7 19 -28 27 -15 49 -21 64 -17 14
4 17 3 9 -3 -9 -6 -2 -17 27 -40 31 -25 49 -32 83 -32 54 0 88 -22 88 -57 0
-19 -4 -24 -16 -19 -9 3 -26 9 -39 12 -12 3 -28 16 -35 30 -15 27 -36 33 -25
7 33 -80 34 -99 8 -154 -15 -30 -26 -57 -25 -61 1 -5 -2 -8 -7 -8 -5 0 -14
-22 -21 -49 -9 -38 -9 -54 0 -71 9 -17 9 -21 0 -15 -6 4 -15 18 -20 31 -13 32
-34 32 -26 -1 6 -24 -20 -95 -36 -95 -11 0 -28 35 -28 59 0 13 16 32 42 51 30
22 46 44 60 83 10 28 20 59 21 67 1 8 8 21 15 28 13 15 15 35 6 70 -9 31 -47
26 -49 -6 -1 -13 -16 -36 -34 -52 l-32 -29 -10 26 c-14 37 7 63 67 83 l49 17
-34 32 c-39 37 -66 37 -66 1 -1 -14 -12 -42 -27 -63 l-25 -38 -13 30 c-16 40
-6 64 35 87 19 10 35 21 35 24 0 9 -68 40 -86 40 -12 0 -14 -7 -10 -27 4 -20
-1 -40 -18 -68 l-25 -40 -14 35 c-17 39 -11 59 28 84 14 9 25 20 25 24 0 11
-78 40 -150 56 -85 18 -168 22 -249 12 -53 -7 -66 -16 -23 -16 33 0 72 -38 72
-71 0 -17 -2 -17 -42 1 -23 10 -49 28 -58 40 -15 21 -19 21 -60 9 l-44 -13 39
-8 c42 -9 64 -31 65 -65 0 -21 -1 -21 -27 -7 -16 7 -34 14 -40 14 -7 0 -20 11
-29 25 -20 31 -37 28 -112 -21 -59 -39 -92 -84 -92 -129 0 -16 -7 -48 -15 -70
-22 -63 -18 -86 30 -165 28 -47 45 -87 45 -107 0 -25 8 -37 39 -60 22 -15 45
-38 50 -51 6 -13 26 -29 45 -37 19 -8 37 -19 41 -25 3 -5 31 -10 61 -10 30 0
71 -7 92 -16 20 -9 69 -18 107 -21 141 -9 152 -7 185 21 17 14 35 26 39 26 5
0 20 11 35 25 23 22 26 22 26 5 0 -10 -15 -31 -32 -45 l-33 -27 27 6 c15 3 39
11 54 16 25 10 26 14 21 55 -8 56 5 65 26 19 30 -61 23 -88 -30 -123 -25 -17
-57 -31 -69 -31 -38 0 -54 -11 -69 -47 -8 -20 -15 -37 -15 -38 0 -2 17 -6 38
-10 58 -11 105 -62 81 -91 -16 -19 -26 -18 -31 4 -4 13 -22 23 -59 31 -110 25
-113 25 -129 -4 -19 -35 -88 -75 -131 -75 -28 0 -40 -7 -58 -31 -45 -60 -128
-87 -182 -58 -16 8 -25 7 -37 -4 -26 -22 -93 -53 -131 -61 -41 -7 -71 -32 -71
-57 0 -10 -11 -26 -24 -35 -14 -8 -39 -38 -57 -65 l-31 -49 -17 22 c-9 13 -28
40 -41 61 -14 20 -33 40 -42 43 -10 3 -21 19 -26 36 -9 36 -17 42 -93 62 -30
9 -72 27 -93 41 -29 19 -41 23 -56 15 -52 -28 -138 1 -180 59 -15 22 -30 30
-65 33 -50 6 -108 40 -127 76 -10 19 -18 23 -43 18 -16 -3 -54 -9 -83 -14 -51
-8 -77 -26 -66 -44 3 -4 1 -8 -5 -8 -6 0 -15 9 -21 19 -15 30 30 79 81 87 32
5 39 10 34 23 -4 9 -11 28 -17 42 -7 22 -17 27 -54 32 -62 7 -124 51 -124 88
0 33 30 100 41 93 5 -3 6 -25 2 -49 -5 -41 -4 -45 21 -55 15 -5 39 -13 54 -16
l27 -6 -33 27 c-22 18 -32 35 -31 53 0 25 1 26 10 6 6 -11 25 -29 42 -39 18
-10 42 -27 54 -38 15 -13 35 -19 65 -19 110 2 188 11 216 26 18 9 56 16 90 16
40 0 64 5 72 15 6 8 21 17 32 21 11 3 47 32 79 65 46 45 62 67 66 96 3 21 21
62 40 92 51 79 54 93 38 148 -8 26 -15 62 -15 79 0 42 -46 103 -106 141 -66
41 -92 49 -100 28 -4 -9 -29 -27 -55 -40 l-49 -23 0 22 c0 35 23 58 66 66 l39
6 -44 14 c-43 14 -44 13 -63 -13 -11 -15 -25 -27 -31 -27 -7 0 -24 -7 -39 -14
-25 -13 -28 -13 -28 0 0 19 19 57 34 66 6 4 27 8 46 9 l35 1 -36 10 c-31 8
-41 6 -74 -16 -30 -21 -41 -24 -58 -15 -19 11 -19 12 -2 22 10 5 31 10 47 9
15 0 28 4 28 9 0 10 -62 11 -100 0 -14 -4 -30 -18 -37 -31 -13 -26 -40 -40
-60 -33 -14 6 18 34 51 47 10 3 16 9 13 13 -15 14 -237 -48 -237 -67 0 -3 13
-16 30 -28 32 -24 39 -57 19 -94 -10 -19 -12 -18 -35 18 -16 27 -22 48 -18 67
4 20 2 27 -10 27 -18 0 -86 -31 -86 -40 0 -3 16 -14 35 -24 41 -22 51 -47 35
-86 l-12 -30 -25 37 c-13 20 -25 48 -26 62 -3 38 -32 38 -69 0 l-33 -32 48
-14 c59 -17 82 -48 67 -88 l-11 -28 -34 38 c-20 21 -34 45 -33 54 2 10 -5 17
-19 19 -17 2 -23 -3 -28 -27 -8 -39 2 -71 23 -71 13 0 14 -2 3 -9 -11 -7 -11
-12 2 -32 9 -13 18 -40 22 -60 5 -28 17 -44 51 -67 45 -33 54 -55 34 -93 -6
-10 -14 -19 -19 -19 -13 0 -44 77 -38 94 3 9 2 18 -3 21 -6 4 -14 -5 -19 -18
-6 -14 -15 -28 -20 -32 -8 -4 -7 2 0 19 21 45 -16 138 -44 110 -3 -3 -2 -16 2
-28 6 -14 3 -36 -9 -65 l-17 -44 -16 24 c-25 35 -21 65 16 98 17 17 35 31 39
31 4 0 -6 25 -22 55 -29 55 -29 55 -13 107 8 29 17 56 20 61 2 4 0 7 -6 7 -5
0 -12 -9 -16 -19 -5 -17 -23 -27 -78 -45 -13 -4 -17 0 -17 19 0 33 35 55 88
55 33 0 52 7 82 31 22 18 37 36 34 40 -3 5 2 6 10 3 8 -3 34 5 56 17 36 20 39
24 21 31 -11 4 -25 17 -31 28 -11 20 -10 21 12 15 12 -4 30 -14 39 -21 14 -13
29 -10 117 19 l101 34 -23 22 c-28 26 -63 27 -71 2 -3 -12 -24 -26 -50 -35
-44 -14 -45 -14 -45 6 0 38 28 58 83 58 l51 0 -29 30 c-31 32 -65 40 -65 15 0
-12 -75 -55 -96 -55 -10 0 -3 38 12 58 12 18 25 22 64 22 l49 0 -10 30 c-6 17
-13 30 -15 30 -13 0 -84 -52 -105 -77 -33 -39 -66 -109 -77 -163 l-10 -45 -1
53 c-1 61 -22 79 -50 45 -9 -12 -35 -30 -58 -41 l-43 -20 0 24 c0 44 34 66 97
63 54 -3 56 -2 69 30 8 18 14 35 14 36 0 2 -16 -5 -36 -15 -41 -21 -81 -13
-102 20 -12 20 -10 20 68 16 64 -4 82 -2 87 10 3 8 27 32 54 53 32 25 45 41
37 45 -7 3 -4 4 8 1 28 -7 42 11 46 60 2 24 12 50 25 65 28 30 25 33 -16 19
-25 -9 -36 -8 -56 5 -13 9 -29 24 -34 34 -9 16 -5 17 42 11 29 -4 62 -10 74
-14 15 -5 30 -1 48 13 l26 21 -43 3 c-36 2 -45 8 -56 31 -8 16 -12 30 -10 32
9 10 84 -18 100 -36 20 -23 23 -23 73 1 22 11 48 19 58 20 24 0 21 23 -8 66
-28 42 -26 69 9 96 21 17 21 16 29 -23 6 -30 5 -46 -7 -64 -26 -39 -2 -37 38
4 37 37 37 38 18 62 -30 39 -32 56 -11 83 11 14 24 26 29 26 16 0 23 -70 10
-96 -17 -32 -11 -36 33 -22 l37 11 -20 34 c-28 48 -26 78 9 103 l30 20 -3 -52
c-2 -29 -5 -62 -7 -73 -4 -18 3 -21 76 -26 44 -3 87 -9 96 -13 9 -4 22 1 32
12 16 17 15 20 -8 52 -31 42 -32 73 -3 102 l22 22 10 -33 c7 -23 6 -43 -2 -64
-17 -45 -1 -52 54 -23 27 14 57 28 67 30 23 7 22 27 -3 33 -11 3 -31 25 -44
49 l-25 44 23 0 c13 0 35 -9 50 -21 20 -16 26 -29 26 -61 0 -35 2 -39 16 -28
27 23 36 49 24 68 -10 15 -11 14 -7 -5 8 -35 -5 -27 -30 16 -25 43 -22 66 11
93 20 17 21 16 29 -18 4 -20 13 -45 21 -56z m170 -41 c-13 -24 -35 -49 -49
-55 -24 -11 -25 -10 -25 22 0 37 22 62 60 69 14 2 28 5 32 6 4 0 -4 -19 -18
-42z m-471 -45 c12 -11 17 -29 16 -61 -1 -25 -3 -38 -6 -29 -2 9 -13 20 -24
23 -11 4 -25 19 -32 33 -6 15 -17 34 -24 43 -11 14 -9 15 20 11 17 -2 40 -11
50 -20z m691 -27 c-14 -24 -34 -47 -44 -50 -10 -3 -21 -14 -23 -23 -3 -9 -5 4
-6 29 -1 52 11 67 62 79 17 4 33 8 34 9 1 1 -10 -19 -23 -44z m189 -13 c21
-19 22 -60 1 -90 l-16 -23 -14 26 c-16 31 -15 116 1 107 6 -3 18 -12 28 -20z
m-1263 -201 c15 -28 13 -31 -20 -31 -36 0 -70 31 -70 64 l0 24 40 -19 c22 -11
44 -28 50 -38z m-188 -182 c18 -10 19 -12 5 -27 -24 -24 -74 -19 -103 9 l-24
25 51 2 c27 1 59 -3 71 -9z m-69 -88 c17 -6 16 -8 -5 -27 -19 -18 -108 -49
-108 -39 0 2 4 15 10 30 14 36 61 53 103 36z m2003 -25 c7 -6 15 -21 18 -33 6
-20 5 -21 -36 -11 -24 5 -54 19 -66 31 l-24 22 29 6 c33 7 63 2 79 -15z m120
-128 c-15 -25 -61 -39 -90 -28 -59 22 -29 50 50 48 47 -2 50 -4 40 -20z m-533
-167 c17 -6 16 -8 -8 -19 -23 -11 -31 -10 -51 3 -13 8 -24 18 -24 20 0 7 63 5
83 -4z m104 -21 c24 -19 21 -30 -8 -30 -16 0 -49 35 -49 52 0 10 30 -2 57 -22z
m-1823 4 c9 -3 16 -9 16 -13 0 -13 -46 -35 -86 -41 -37 -6 -41 -4 -36 12 9 37
64 58 106 42z m2241 -10 c8 -4 23 -20 31 -37 15 -28 15 -29 -1 -23 -9 3 -29 6
-45 6 -15 0 -38 9 -51 20 -21 17 -22 21 -9 30 17 11 51 13 75 4z m-2327 -249
c2 -19 -4 -48 -12 -64 -8 -15 -14 -30 -13 -33 1 -2 -5 3 -14 12 -31 28 -32 55
-3 89 14 17 29 31 33 31 4 0 8 -16 9 -35z m2386 -6 c27 -31 28 -56 4 -86 -17
-21 -24 -15 -36 25 -12 38 -12 92 0 92 3 0 18 -14 32 -31z m-2250 -23 c19 -8
37 -24 41 -35 7 -23 -2 -61 -14 -61 -15 0 -59 56 -63 83 -6 32 -7 31 36 13z
m2119 -3 c-7 -2 -13 -15 -13 -27 0 -12 -15 -37 -34 -55 l-33 -32 -7 26 c-4 15
-4 36 0 47 6 20 56 48 84 47 10 0 11 -2 3 -6z m99 -108 c13 -17 9 -49 -9 -74
l-16 -24 -18 44 c-11 30 -14 50 -7 62 5 9 6 23 2 30 -8 13 36 -21 48 -38z"/>
<path d="M1495 2480 c-9 -15 -1 -23 21 -18 15 3 16 4 1 16 -11 9 -17 10 -22 2z"/>
<path d="M1357 2395 c-52 -36 -62 -59 -34 -78 21 -14 23 -12 50 40 15 31 26
57 24 59 -2 2 -20 -8 -40 -21z"/>
<path d="M1469 2397 c-50 -33 -83 -120 -84 -218 0 -66 4 -83 35 -144 34 -66
35 -68 41 -39 5 25 6 22 11 -21 3 -27 15 -84 25 -125 l19 -75 7 53 c3 30 21
81 38 115 18 34 41 80 53 102 13 25 22 65 24 108 4 60 2 71 -18 92 -22 24 -23
24 -49 5 -29 -20 -81 -35 -81 -23 1 22 30 42 66 45 41 4 41 4 -28 30 -35 13
-36 28 -2 28 18 0 39 -13 66 -42 33 -37 38 -39 32 -18 -4 14 -19 50 -35 81
-38 76 -62 85 -120 46z m36 -299 c-4 -13 -13 -27 -19 -33 -7 -5 -15 -17 -19
-25 -3 -8 -6 1 -6 21 -1 36 13 59 37 59 9 0 11 -7 7 -22z m70 -48 c6 -9 -48
-30 -76 -30 -24 0 -14 29 15 39 22 9 53 4 61 -9z"/>
<path d="M1621 2404 c21 -44 54 -104 59 -104 3 0 14 6 24 13 16 12 16 14 -2
37 -20 25 -88 70 -81 54z"/>
<path d="M1057 2338 l-38 -10 30 -19 c17 -10 31 -23 31 -29 0 -14 -43 -13 -76
2 -23 11 -28 10 -40 -7 -8 -10 -14 -21 -14 -24 0 -3 35 -7 78 -7 42 -1 96 -8
120 -17 46 -16 47 -16 56 29 7 31 6 31 -30 30 -26 -1 -40 5 -50 19 -13 20 -12
21 24 17 20 -2 42 -8 48 -13 13 -10 41 17 30 28 -12 12 -129 13 -169 1z"/>
<path d="M1813 2334 c-26 -6 -29 -17 -9 -33 10 -8 16 -9 21 -1 3 5 25 10 47
10 41 0 41 0 22 -21 -13 -15 -28 -20 -51 -17 -30 4 -32 2 -27 -22 11 -50 10
-49 56 -33 24 8 78 16 121 16 78 2 93 11 61 38 -12 10 -20 10 -35 1 -23 -14
-79 -16 -79 -2 0 16 46 41 66 35 10 -3 3 2 -16 11 -35 17 -136 27 -177 18z"/>
<path d="M1280 2300 c-6 -11 -14 -40 -19 -65 -8 -43 -7 -47 20 -66 l28 -20 6
38 c4 21 11 51 16 67 10 32 6 41 -21 56 -15 8 -21 6 -30 -10z"/>
<path d="M1703 2295 c-20 -14 -20 -17 -7 -61 8 -26 14 -58 14 -71 l0 -24 29
20 c27 19 28 23 20 66 -7 39 -25 85 -32 85 -1 0 -12 -7 -24 -15z"/>
<path d="M963 2193 c-47 -9 -18 -100 49 -157 34 -29 50 -35 128 -45 50 -6 101
-16 116 -21 38 -15 44 -13 44 16 0 21 -3 25 -17 19 -41 -17 -64 -17 -83 0 -31
28 -24 33 36 23 31 -5 59 -7 61 -4 8 7 -35 73 -51 79 -8 3 -21 -5 -30 -18 -9
-14 -29 -28 -44 -31 -15 -4 -33 -11 -40 -17 -11 -8 -12 -5 -7 19 9 36 40 64
72 64 32 0 21 16 -21 30 -31 10 -36 9 -64 -20 -17 -16 -39 -30 -49 -30 -11 0
-24 -5 -29 -10 -7 -7 -9 -1 -6 20 5 35 34 60 72 61 l25 1 -25 7 c-38 12 -112
19 -137 14z"/>
<path d="M1961 2179 c-49 -9 -65 -19 -34 -19 28 0 60 -29 67 -62 l6 -27 -37
15 c-21 9 -50 27 -65 41 l-26 25 -38 -18 -38 -18 33 -7 c39 -8 56 -24 65 -61
l6 -27 -37 15 c-21 8 -47 27 -59 40 -20 24 -22 25 -38 8 -10 -9 -25 -28 -33
-41 -14 -21 -14 -26 -3 -33 8 -5 19 -5 25 -1 13 11 85 19 85 11 0 -4 -9 -15
-20 -25 -19 -17 -42 -17 -82 0 -15 6 -18 2 -18 -20 0 -24 3 -26 23 -21 12 4
67 13 122 22 80 12 107 20 134 43 51 40 72 73 78 119 5 36 3 42 -13 42 -11 0
-28 2 -39 4 -11 2 -40 0 -64 -5z"/>
<path d="M815 2161 l-40 -19 36 5 c20 3 39 1 42 -4 8 -12 -20 -53 -36 -53 -7
0 -24 -7 -39 -14 -27 -14 -28 -14 -28 8 0 12 5 27 12 34 6 6 9 14 6 18 -4 3
-23 -9 -42 -28 -36 -33 -60 -86 -47 -105 4 -6 54 -6 140 1 116 10 132 13 118
25 -14 11 -22 11 -47 1 -25 -10 -34 -10 -55 4 -51 34 -15 46 63 21 l24 -8 -17
32 c-9 18 -18 45 -20 59 -1 15 -3 30 -4 35 -2 12 -23 8 -66 -12z m-56 -142
c-44 -12 -69 -10 -63 5 8 20 34 25 63 12 l24 -11 -24 -6z"/>
<path d="M2140 2148 c0 -13 -9 -42 -20 -66 l-19 -42 42 6 c23 3 48 8 55 10 23
7 7 -20 -21 -36 -22 -12 -29 -12 -51 -1 -21 11 -28 12 -41 1 -8 -7 -15 -15
-15 -19 0 -3 53 -7 118 -7 101 -2 113 0 83 10 -33 12 -33 12 -10 22 13 6 31 9
41 7 18 -4 34 -33 18 -33 -6 0 -10 -4 -10 -10 0 -14 28 -12 33 3 7 20 -11 69
-35 95 -25 26 -97 65 -140 76 -24 5 -28 3 -28 -16z m105 -33 c14 -13 25 -33
25 -44 0 -19 -2 -19 -37 -5 -41 17 -76 51 -67 65 10 17 55 9 79 -16z"/>
<path d="M708 1943 c-38 -10 -17 -24 26 -18 38 6 46 4 55 -14 14 -25 2 -27
-48 -10 -18 6 -35 9 -38 5 -8 -7 31 -50 71 -79 24 -17 28 -18 23 -4 -3 9 2 26
13 39 l19 23 2 -30 c1 -16 1 -37 0 -47 -2 -19 3 -23 44 -32 28 -7 29 -7 12 12
-19 20 -22 48 -8 57 12 7 31 -26 31 -54 0 -12 4 -21 9 -21 5 0 17 -3 27 -7 14
-5 15 -3 7 12 -6 10 -8 26 -5 37 4 18 6 18 23 2 11 -9 19 -25 19 -35 0 -10 8
-20 18 -23 47 -13 134 -27 139 -22 4 3 -3 6 -15 6 -12 0 -38 14 -57 32 -31 27
-34 33 -20 40 29 17 72 -1 89 -37 9 -18 16 -37 16 -43 0 -11 149 -66 157 -58
9 9 -8 25 -21 20 -16 -6 -88 54 -80 67 10 16 64 9 83 -10 11 -11 23 -36 27
-56 7 -40 16 -49 43 -40 26 8 41 54 34 104 -4 30 -15 49 -40 71 -41 36 -46 37
-66 7 -8 -13 -33 -30 -56 -39 l-41 -16 6 26 c8 35 39 62 73 62 l26 1 -30 13
c-28 12 -32 11 -65 -21 -44 -42 -69 -49 -108 -29 -56 29 -50 34 60 39 27 2 53
8 60 15 13 13 8 16 -62 31 -81 18 -103 14 -137 -24 -33 -37 -63 -44 -108 -23
l-25 11 42 19 c23 11 56 18 72 16 16 -2 31 2 33 8 6 19 -269 33 -329 17z"/>
<path d="M2052 1931 c-69 -7 -85 -26 -23 -27 22 0 45 -5 53 -11 7 -6 22 -13
33 -15 16 -4 13 -8 -17 -21 -46 -21 -77 -11 -108 33 -22 31 -25 32 -74 26 -28
-4 -68 -12 -89 -17 -32 -9 -36 -13 -26 -25 8 -10 22 -13 43 -9 17 3 49 0 71
-8 l40 -14 -34 -17 c-42 -22 -71 -15 -113 28 -31 33 -35 34 -63 22 l-30 -13
38 -7 c31 -6 41 -14 53 -41 8 -19 14 -37 14 -40 0 -11 -86 30 -102 50 -16 19
-19 19 -45 5 -15 -9 -33 -27 -40 -40 -19 -38 -16 -104 6 -131 l18 -23 79 31
c44 17 89 34 102 38 12 3 22 11 22 17 0 5 7 25 16 43 17 35 48 49 88 39 24 -6
24 -6 -13 -41 l-36 -34 40 6 c59 9 75 15 75 28 0 7 8 23 17 36 l16 24 9 -23
c5 -14 4 -28 -3 -36 -7 -9 -8 -14 -1 -14 24 0 42 13 42 32 0 27 19 60 31 53
14 -9 11 -36 -8 -57 -18 -20 -7 -23 32 -8 16 6 26 17 24 27 -6 61 10 82 31 42
9 -15 8 -24 -2 -37 -21 -26 42 21 76 57 33 35 29 50 -9 33 -14 -7 -35 -12 -46
-12 -17 0 -18 3 -8 21 9 18 17 20 55 14 46 -6 62 8 22 19 -27 7 -165 5 -256
-3z m-248 -177 c12 -5 6 -14 -25 -40 -23 -19 -49 -34 -60 -34 -10 0 -19 -5
-19 -12 0 -6 -3 -9 -6 -5 -3 3 -1 22 6 42 15 45 59 66 104 49z"/>
<path d="M1878 1723 c6 -2 18 -2 25 0 6 3 1 5 -13 5 -14 0 -19 -2 -12 -5z"/>
<path d="M1325 878 c-25 -13 -119 -127 -111 -135 13 -13 118 68 132 102 20 50
18 53 -21 33z"/>
<path d="M1673 844 c7 -23 24 -45 47 -60 19 -13 45 -31 58 -40 39 -29 34 -9
-15 54 -40 50 -78 82 -98 82 -2 0 2 -16 8 -36z"/>
<path d="M1487 822 c-9 -10 -23 -38 -32 -61 -8 -24 -24 -58 -35 -76 -34 -56
-24 -215 14 -215 24 0 28 17 11 49 -20 40 -20 135 1 155 22 23 25 20 8 -11 -9
-18 -12 -41 -8 -63 9 -49 42 -110 59 -110 37 0 84 125 65 175 -5 14 -6 25 -1
25 30 0 28 -113 -3 -173 -12 -26 -21 -49 -18 -52 3 -3 18 -5 33 -5 34 0 43 24
44 115 0 44 -6 70 -21 96 -12 20 -27 53 -34 75 -12 37 -48 92 -61 93 -3 1 -13
-7 -22 -17z"/>
<path d="M719 792 c14 -26 28 -27 55 -7 19 14 19 15 -6 15 -15 0 -34 3 -43 7
-15 5 -16 3 -6 -15z"/>
<path d="M1166 803 c-4 -4 -54 -10 -111 -13 -58 -3 -110 -11 -116 -17 -9 -9
-6 -19 10 -42 12 -16 27 -44 32 -61 13 -35 20 -37 44 -10 10 11 36 25 57 32
31 9 43 21 67 65 28 52 32 60 17 46z"/>
<path d="M1872 745 c23 -43 35 -54 68 -64 23 -7 50 -21 62 -33 16 -16 22 -18
29 -7 5 8 9 19 9 25 0 6 13 29 30 52 l29 41 -36 12 c-20 6 -57 9 -84 6 -29 -4
-67 -1 -92 7 l-43 13 28 -52z"/>
<path d="M2262 793 c-31 -4 -33 -5 -15 -18 25 -20 41 -18 53 5 6 11 7 19 3 18
-4 0 -23 -3 -41 -5z"/>
<path d="M832 721 c-22 -13 6 -50 53 -72 44 -20 50 -19 41 9 -18 55 -61 84
-94 63z"/>
<path d="M2123 693 c-22 -30 -38 -73 -28 -73 22 0 76 33 91 54 19 30 18 32
-17 41 -22 5 -30 1 -46 -22z"/>
<path d="M1198 649 c-20 -11 -23 -36 -8 -59 8 -12 15 -9 45 20 19 18 35 38 35
42 0 11 -52 9 -72 -3z"/>
<path d="M1750 642 c0 -12 58 -72 69 -72 6 0 14 11 17 26 5 18 1 29 -12 39
-20 15 -74 20 -74 7z"/>
<path d="M1255 596 c-40 -55 -40 -51 -8 -74 74 -52 96 -30 60 59 l-22 55 -30
-40z"/>
<path d="M1062 604 c-41 -29 -17 -64 46 -64 38 0 41 4 28 45 -12 39 -36 46
-74 19z"/>
<path d="M1717 570 c-9 -26 -17 -58 -17 -70 0 -18 4 -20 23 -14 26 8 77 43 77
52 -1 4 -15 24 -33 44 l-33 37 -17 -49z"/>
<path d="M1887 578 c-8 -18 -11 -37 -6 -42 13 -15 70 -9 90 10 19 17 19 18 2
35 -10 10 -30 21 -45 24 -24 6 -29 3 -41 -27z"/>
<path d="M1459 443 l-27 -4 22 -42 c13 -23 29 -62 38 -87 8 -25 19 -44 23 -43
5 1 14 19 20 40 7 21 21 57 33 79 l21 42 -32 5 c-18 4 -41 8 -52 10 -11 3 -32
2 -46 0z"/>
</g>
</svg>
